HIERARCHY
ROOT Hips
{
 OFFSET 0.000000 0.000000 0.000000
 CHANNELS 6 Xposition Yposition Zposition Yrotation Xrotation Zrotation
 JOINT Chest
 {
  OFFSET 0.000000 9.588913 -0.003946
  CHANNELS 3 Yrotation Xrotation Zrotation
  JOINT Chest2
  {
   OFFSET 0.000000 9.541882 0.008053
   CHANNELS 3 Yrotation Xrotation Zrotation
   JOINT Chest3
   {
    OFFSET 0.000000 9.501360 0.000000
    CHANNELS 3 Yrotation Xrotation Zrotation
    JOINT Chest4
    {
     OFFSET 0.000000 9.491660 0.000000
     CHANNELS 3 Yrotation Xrotation Zrotation
     JOINT Neck
     {
      OFFSET 0.000000 14.331917 0.000000
      CHANNELS 3 Yrotation Xrotation Zrotation
      JOINT Head
      {
       OFFSET 0.000000 8.884799 0.017034
       CHANNELS 3 Yrotation Xrotation Zrotation
       End Site
       {
        OFFSET 0.000000 16.896195 0.008993
       }
      }
     }
     JOINT RightCollar
     {
      OFFSET -2.923010 9.499495 0.000000
      CHANNELS 3 Yrotation Xrotation Zrotation
      JOINT RightShoulder
      {
       OFFSET -13.795216 0.000000 0.000000
       CHANNELS 3 Yrotation Xrotation Zrotation
       JOINT RightElbow
       {
        OFFSET -30.272209 0.000000 0.000000
        CHANNELS 3 Yrotation Xrotation Zrotation
        JOINT RightWrist
        {
         OFFSET -24.478199 0.000000 0.000000
         CHANNELS 3 Yrotation Xrotation Zrotation
         End Site
         {
          OFFSET -18.090752 0.000000 0.000000
         }
        }
       }
      }
     }
     JOINT LeftCollar
     {
      OFFSET 2.923010 9.499495 0.000000
      CHANNELS 3 Yrotation Xrotation Zrotation
      JOINT LeftShoulder
      {
       OFFSET 13.795216 0.000000 0.000000
       CHANNELS 3 Yrotation Xrotation Zrotation
       JOINT LeftElbow
       {
        OFFSET 30.272209 0.000000 0.000000
        CHANNELS 3 Yrotation Xrotation Zrotation
        JOINT LeftWrist
        {
         OFFSET 24.478199 0.000000 0.000000
         CHANNELS 3 Yrotation Xrotation Zrotation
         End Site
         {
          OFFSET 18.090752 0.000000 0.000000
         }
        }
       }
      }
     }
    }
   }
  }
 }
 JOINT RightHip
 {
  OFFSET -7.826875 0.019532 0.001973
  CHANNELS 3 Yrotation Xrotation Zrotation
  JOINT RightKnee
  {
   OFFSET 0.000000 -40.546152 -0.001885
   CHANNELS 3 Yrotation Xrotation Zrotation
   JOINT RightAnkle
   {
    OFFSET 0.000000 -39.417092 -0.003189
    CHANNELS 3 Yrotation Xrotation Zrotation
    JOINT RightToe
    {
     OFFSET 0.000000 -7.579396 17.243563
     CHANNELS 3 Yrotation Xrotation Zrotation
     End Site
     {
      OFFSET 0.000000 -1.500329 6.694466
     }
    }
   }
  }
 }
 JOINT LeftHip
 {
  OFFSET 7.826875 0.019532 0.001973
  CHANNELS 3 Yrotation Xrotation Zrotation
  JOINT LeftKnee
  {
   OFFSET 0.000000 -40.546152 -0.001885
   CHANNELS 3 Yrotation Xrotation Zrotation
   JOINT LeftAnkle
   {
    OFFSET 0.000000 -39.417092 -0.003189
    CHANNELS 3 Yrotation Xrotation Zrotation
    JOINT LeftToe
    {
     OFFSET 0.000000 -7.579396 17.243563
     CHANNELS 3 Yrotation Xrotation Zrotation
     End Site
     {
      OFFSET 0.000000 -1.500329 6.694466
     }
    }
   }
  }
 }
}
MOTION
Frames: 5
Frame Time: 0.008333
0.000000 87.345680 0.000000 0.000000 -5.767889 0.000000 0.000000 11.653876 0.000000 0.000000 -5.885988 0.000000 0.000000 -0.000000 0.000000 0.000000 -0.000000 0.000000 0.000000 12.528808 0.000000 0.000000 0.711711 0.000000 0.000000 -0.000000 0.000000 0.000000 -0.000000 0.000000 2.309063 -0.000000 0.000000 -2.309063 -0.000000 -0.000000 0.000000 -0.000000 0.000000 0.000000 0.000000 0.000000 -2.309063 0.000000 0.000000 2.309063 -0.000000 0.000000 0.000000 8.520374 0.000000 0.000000 1.905768 0.000000 -0.000000 -4.658254 0.000000 0.000000 -0.000000 0.000000 0.000000 8.520374 0.000000 0.000000 1.905768 0.000000 -0.000000 -4.658254 0.000000 0.000000 -0.000000 0.000000
11.039531 89.230747 -24.941574 135.827953 -8.327151 1.494582 1.791235 5.595973 1.952758 0.940240 3.113594 1.115331 1.185212 3.889052 1.402668 0.940241 3.113594 1.115331 -9.748258 32.889219 -0.480965 -11.040892 12.392856 1.604956 -5.609795 -0.425117 -4.973915 -7.555970 -1.104309 87.117698 8.022642 -2.708224 1.789919 3.059001 -3.675756 -3.608374 0.818839 0.318961 -4.247569 3.175279 -4.503291 -90.545738 -2.330109 2.490856 -1.350524 -11.663796 -0.728556 11.403147 -10.151434 8.611347 -6.876914 -3.337767 -0.985430 1.358237 -2.075884 -0.397456 2.611553 0.055913 -0.509153 -0.644338 -7.620978 -3.953597 8.278170 1.848850 21.802903 3.536692 6.195305 -7.775489 -10.795763 0.469340 -0.913781 -0.909161
10.965254 89.269654 -24.959785 135.671498 -8.334990 1.608599 1.832455 5.627052 1.942947 0.952197 3.114251 1.129426 1.200285 3.889799 1.420396 0.952198 3.114251 1.129426 -9.935487 32.763429 -0.485934 -11.255813 12.241876 1.641665 -5.654205 -0.459392 -5.006193 -7.697517 -1.086039 86.977738 8.353155 -2.942596 1.869551 3.150069 -3.687880 -3.622265 0.809023 0.191665 -4.235575 2.786454 -4.515436 -90.421756 -2.570755 3.146605 -1.499042 -11.663100 -0.442486 11.388513 -10.057802 8.270725 -7.013775 -3.327709 -0.419508 1.253891 -1.990715 -0.589053 3.028976 0.064298 -0.546939 -0.739741 -8.176738 -4.282548 8.009208 1.454974 22.611036 3.621161 6.046403 -7.902984 -10.623994 0.397703 -1.031641 -0.920509
10.874067 89.310581 -24.982960 135.480085 -8.333978 1.717236 1.881707 5.662935 1.946224 0.965929 3.117497 1.145306 1.217602 3.893769 1.440379 0.965930 3.117497 1.145305 -10.122167 32.624143 -0.491257 -11.469686 12.072657 1.678100 -5.685767 -0.488231 -5.049689 -7.795929 -1.079598 86.848382 8.701380 -3.209192 1.930311 3.192766 -3.676441 -3.632244 0.799943 0.059900 -4.217435 2.383424 -4.547974 -90.336401 -2.756142 3.698046 -1.626231 -11.658132 -0.249049 11.390494 -9.897870 7.879141 -7.142339 -3.365604 0.219432 1.137498 -1.879446 -0.787900 3.477953 0.072368 -0.598849 -0.827441 -8.682907 -4.630074 7.713255 1.005573 23.402912 3.701141 5.907668 -8.042857 -10.493756 0.354448 -1.099397 -0.877520
10.766748 89.350215 -25.015373 135.241567 -8.333248 1.826951 1.943448 5.708202 1.957812 0.981232 3.123734 1.162954 1.236910 3.901468 1.462596 0.981234 3.123734 1.162953 -10.306343 32.475354 -0.498173 -11.680072 11.890510 1.712365 -5.704311 -0.502951 -5.107272 -7.863895 -1.091954 86.732784 9.060267 -3.491429 1.976238 3.195952 -3.656845 -3.649100 0.799501 -0.067434 -4.194226 1.965992 -4.604606 -90.293460 -2.883204 4.123069 -1.729787 -11.648256 -0.127207 11.392682 -9.664442 7.450238 -7.273886 -3.427922 0.916274 1.014976 -1.761279 -0.955666 3.941472 0.080877 -0.692533 -0.897633 -9.154365 -4.983863 7.391522 0.523325 24.172483 3.768127 5.792346 -8.201519 -10.394029 0.337013 -1.113313 -0.798383
